<svg width="47" height="46" viewBox="0 0 47 46" fill="none" xmlns="http://www.w3.org/2000/svg">
<ellipse cx="23.5" cy="23" rx="23.5" ry="23" fill="#F2C21F"/>
<path d="M12.4621 35.5849C12.4621 35.5849 10.2545 35.5849 10.2545 33.4151C10.2545 31.2453 12.4621 24.7359 23.5 24.7359C34.5378 24.7359 36.7454 31.2453 36.7454 33.4151C36.7454 35.5849 34.5378 35.5849 34.5378 35.5849H12.4621ZM23.5 22.566C25.2564 22.566 26.9409 21.8802 28.1829 20.6595C29.4249 19.4387 30.1227 17.783 30.1227 16.0566C30.1227 14.3302 29.4249 12.6745 28.1829 11.4537C26.9409 10.233 25.2564 9.54718 23.5 9.54718C21.7435 9.54718 20.059 10.233 18.817 11.4537C17.575 12.6745 16.8772 14.3302 16.8772 16.0566C16.8772 17.783 17.575 19.4387 18.817 20.6595C20.059 21.8802 21.7435 22.566 23.5 22.566Z" fill="white"/>
</svg>
