<svg width="25" height="26" viewBox="0 0 25 26" fill="none" xmlns="http://www.w3.org/2000/svg">
<path d="M18.2965 16.6861C19.7962 14.6074 20.4679 12.03 20.1773 9.46977C19.8866 6.90951 18.6549 4.55515 16.7288 2.87771C14.8026 1.20027 12.324 0.323458 9.78869 0.42269C7.25343 0.521921 4.84854 1.58988 3.05515 3.41291C1.26177 5.23593 0.21214 7.67958 0.116266 10.255C0.0203925 12.8304 0.885342 15.3475 2.53807 17.3029C4.1908 19.2583 6.50942 20.5077 9.03006 20.8012C11.5507 21.0946 14.0875 20.4105 16.1329 18.8856H16.1313C16.1767 18.9485 16.2273 19.0088 16.2831 19.0665L22.246 25.1236C22.5364 25.4188 22.9304 25.5848 23.3412 25.5849C23.7521 25.5851 24.1462 25.4194 24.4368 25.1244C24.7274 24.8294 24.8907 24.4292 24.8909 24.0119C24.891 23.5945 24.728 23.1942 24.4375 22.899L18.4746 16.8419C18.4193 16.7849 18.3598 16.7339 18.2965 16.6861ZM18.6961 10.6385C18.6961 11.7748 18.4758 12.9 18.0477 13.9498C17.6196 14.9997 16.9921 15.9536 16.2011 16.7571C15.4101 17.5606 14.4711 18.198 13.4376 18.6328C12.4041 19.0677 11.2964 19.2915 10.1777 19.2915C9.05904 19.2915 7.95134 19.0677 6.91783 18.6328C5.88433 18.198 4.94527 17.5606 4.15426 16.7571C3.36325 15.9536 2.73578 14.9997 2.30769 13.9498C1.8796 12.9 1.65927 11.7748 1.65927 10.6385C1.65927 8.34355 2.55674 6.14263 4.15426 4.51987C5.75177 2.89712 7.91847 1.98546 10.1777 1.98546C12.4369 1.98546 14.6036 2.89712 16.2011 4.51987C17.7987 6.14263 18.6961 8.34355 18.6961 10.6385Z" fill="black"/>
</svg>
